<svg width="54" height="170" viewBox="0 0 54 170" fill="none" xmlns="http://www.w3.org/2000/svg">
<g filter="url(#filter0_d)">
<path d="M38 127.673C38 127.915 37.956 128.156 37.87 128.382L33 141.224L28.8694 152.085C28.2157 153.803 25.7843 153.803 25.1306 152.085L21 141.224L16.13 128.382C16.044 128.156 16 127.915 16 127.673L16 34C16 32.8954 16.8954 32 18 32L36 32C37.1046 32 38 32.8954 38 34L38 127.673Z" fill="url(#paint0_linear)"/>
<rect x="16" y="16" width="22" height="23" rx="4" fill="#F4ACAC"/>
<rect x="16" y="16" width="22" height="23" rx="4" fill="url(#paint1_linear)" fill-opacity="0.2"/>
<rect x="16" y="35" width="22" height="7" fill="url(#paint2_linear)"/>
</g>
<defs>
<filter id="filter0_d" x="0" y="0" width="54" height="169.374" filterUnits="userSpaceOnUse" color-interpolation-filters="sRGB">
<feFlood flood-opacity="0" result="BackgroundImageFix"/>
<feColorMatrix in="SourceAlpha" type="matrix" values="0 0 0 0 0 0 0 0 0 0 0 0 0 0 0 0 0 0 127 0" result="hardAlpha"/>
<feOffset/>
<feGaussianBlur stdDeviation="8"/>
<feColorMatrix type="matrix" values="0 0 0 0 0.25 0 0 0 0 0.25 0 0 0 0 0.25 0 0 0 0.25 0"/>
<feBlend mode="normal" in2="BackgroundImageFix" result="effect1_dropShadow"/>
<feBlend mode="normal" in="SourceGraphic" in2="effect1_dropShadow" result="shape"/>
</filter>
<linearGradient id="paint0_linear" x1="45" y1="81" x2="10" y2="81" gradientUnits="userSpaceOnUse">
<stop stop-color="#E8E8E8"/>
<stop offset="0.505208" stop-color="white"/>
<stop offset="1" stop-color="#E8E8E8"/>
</linearGradient>
<linearGradient id="paint1_linear" x1="16" y1="28.3846" x2="38" y2="28.3846" gradientUnits="userSpaceOnUse">
<stop stop-color="#E5616D"/>
<stop offset="0.484375" stop-color="#E5616D" stop-opacity="0"/>
<stop offset="1" stop-color="#E5616D"/>
</linearGradient>
<linearGradient id="paint2_linear" x1="16" y1="39" x2="38" y2="39" gradientUnits="userSpaceOnUse">
<stop stop-color="#666666"/>
<stop offset="0.458333" stop-color="#8C8C8C"/>
<stop offset="1" stop-color="#666666"/>
</linearGradient>
</defs>
</svg>
